<svg aria-hidden="true" style="position: absolute; width: 0; height: 0; overflow: hidden;" version="1.1" xmlns="http://www.w3.org/2000/svg" xmlns:xlink="http://www.w3.org/1999/xlink">
<defs>
<symbol id="icon-diskover" viewBox="0 0 51 32">
<path fill="#000" style="fill: var(--color1, #000)" opacity="0.07" d="M46.667 0h-42.667c-2.267 0-4 1.733-4 4v24c0 2.267 1.867 4 4 4h42.667c2.267 0 4-1.733 4-4v-24c0-2.267-1.867-4-4-4z"></path>
<path fill="#fff" style="fill: var(--color2, #fff)" d="M46.667 1.333c1.467 0 2.667 1.2 2.667 2.667v24c0 1.467-1.2 2.667-2.667 2.667h-42.667c-1.467 0-2.667-1.2-2.667-2.667v-24c0-1.467 1.2-2.667 2.667-2.667h42.667z"></path>
<path fill="#231f20" style="fill: var(--color3, #231f20)" d="M4.76 9.547h-2.093v7.333h2.093c1.107 0 1.907-0.267 2.613-0.84 0.84-0.693 1.333-1.733 1.333-2.813-0.013-2.173-1.627-3.68-3.947-3.68zM6.44 15.067c-0.453 0.4-1.027 0.587-1.96 0.587h-0.387v-4.853h0.387c0.92 0 1.48 0.16 1.96 0.587 0.493 0.44 0.787 1.12 0.787 1.827s-0.293 1.413-0.787 1.853zM9.36 9.547h1.427v7.333h-1.427v-7.333zM14.28 12.36c-0.853-0.32-1.107-0.533-1.107-0.92 0-0.467 0.453-0.813 1.067-0.813 0.427 0 0.787 0.173 1.147 0.6l0.747-0.973c-0.613-0.533-1.347-0.813-2.16-0.813-1.293 0-2.293 0.907-2.293 2.107 0 1.013 0.467 1.533 1.8 2.013 0.56 0.2 0.84 0.333 0.987 0.413 0.28 0.187 0.427 0.453 0.427 0.76 0 0.6-0.467 1.040-1.107 1.040-0.68 0-1.227-0.347-1.56-0.973l-0.92 0.893c0.653 0.973 1.453 1.4 2.533 1.4 1.48 0 2.533-0.987 2.533-2.413 0.027-1.187-0.467-1.72-2.093-2.32zM16.84 13.227c0 2.16 1.693 3.827 3.867 3.827 0.613 0 1.147-0.12 1.787-0.427v-1.68c-0.573 0.573-1.080 0.8-1.72 0.8-1.44 0-2.467-1.040-2.467-2.533 0-1.413 1.053-2.52 2.4-2.52 0.68 0 1.2 0.24 1.787 0.827v-1.68c-0.627-0.32-1.147-0.453-1.76-0.453-2.147 0-3.893 1.707-3.893 3.84zM33.853 14.48l-1.96-4.933h-1.56l3.107 7.52h0.773l3.16-7.52h-1.547l-1.973 4.933zM38.027 16.88h4.053v-1.24h-2.627v-1.973h2.533v-1.24h-2.533v-1.627h2.627v-1.253h-4.053v7.333zM47.747 11.72c0-1.373-0.947-2.16-2.6-2.16h-2.12v7.333h1.427v-2.947h0.187l1.973 2.947h1.76l-2.307-3.093c1.080-0.227 1.68-0.96 1.68-2.080zM44.867 12.933h-0.413v-2.227h0.44c0.893 0 1.373 0.373 1.373 1.093 0 0.733-0.48 1.133-1.4 1.133z"></path>
<path fill="#000" style="fill: var(--color1, #000)" d="M26.88 17.147c1.037 0 2.031-0.412 2.763-1.145s1.145-1.727 1.145-2.763-0.412-2.030-1.145-2.763c-0.733-0.733-1.727-1.145-2.763-1.145s-2.031 0.412-2.763 1.145c-0.733 0.733-1.145 1.727-1.145 2.763s0.412 2.030 1.145 2.763c0.733 0.733 1.727 1.145 2.763 1.145z"></path>
<path fill="#000" style="fill: var(--color1, #000)" opacity="0.65" d="M26.88 17.147c1.037 0 2.031-0.412 2.763-1.145s1.145-1.727 1.145-2.763-0.412-2.030-1.145-2.763c-0.733-0.733-1.727-1.145-2.763-1.145s-2.031 0.412-2.763 1.145c-0.733 0.733-1.145 1.727-1.145 2.763s0.412 2.030 1.145 2.763c0.733 0.733 1.727 1.145 2.763 1.145z"></path>
<path fill="#231f20" style="fill: var(--color3, #231f20)" d="M48.76 10.008c0-0.133-0.093-0.2-0.24-0.2h-0.213v0.64h0.16v-0.253l0.187 0.253h0.187l-0.213-0.267c0.080-0.013 0.133-0.080 0.133-0.173zM48.493 10.101h-0.027v-0.173h0.027c0.080 0 0.12 0.027 0.12 0.080 0 0.067-0.040 0.093-0.12 0.093z"></path>
<path fill="#231f20" style="fill: var(--color3, #231f20)" d="M48.547 9.568c-0.307 0-0.56 0.253-0.56 0.56s0.253 0.56 0.56 0.56c0.307 0 0.56-0.253 0.56-0.56s-0.253-0.56-0.56-0.56zM48.547 10.594c-0.24 0-0.453-0.2-0.453-0.467 0-0.253 0.2-0.467 0.453-0.467 0.24 0 0.44 0.213 0.44 0.467s-0.2 0.467-0.44 0.467z"></path>
<path fill="#f48120" style="fill: var(--color4, #f48120)" d="M49.333 17.312c0 0-13.213 9.185-37.365 13.355h34.697c0.704 0 1.379-0.278 1.878-0.773s0.783-1.168 0.789-1.872l0.032-4.027-0.031-6.681v-0.001z"></path>
</symbol>
<symbol id="icon-blau" viewBox="0 0 51 32">
<path fill="#000" style="fill: var(--color1, #000)" opacity="0.07" d="M46.667 0h-42.667c-2.267 0-4 1.733-4 4v24c0 2.267 1.867 4 4 4h42.667c2.267 0 4-1.733 4-4v-24c0-2.267-1.867-4-4-4z"></path>
<path fill="#fff" style="fill: var(--color2, #fff)" d="M46.667 1.333c1.467 0 2.667 1.2 2.667 2.667v24c0 1.467-1.2 2.667-2.667 2.667h-42.667c-1.467 0-2.667-1.2-2.667-2.667v-24c0-1.467 1.2-2.667 2.667-2.667h42.667z"></path>
<path fill="#3086c8" style="fill: var(--color5, #3086c8)" d="M16 16v4.933c0 0.4-0.267 0.4-0.667 0.267-2.533-1.067-4-4.4-3.067-7.2 0.533-1.467 1.6-2.667 3.067-3.2 0.533-0.267 0.667-0.133 0.667 0.267v4.933zM18.667 16v-4.933c0-0.4 0-0.4 0.4-0.267 2.8 1.067 4.267 4.4 3.2 7.2-0.533 1.467-1.6 2.667-3.067 3.2-0.533 0.267-0.533 0.133-0.533-0.267v-4.933zM28.267 6.667h-10.933c5.067 0 9.067 4.133 9.067 9.333s-4 9.333-9.067 9.333h10.933c5.067 0 9.067-4.133 9.067-9.333s-4-9.333-9.067-9.333z"></path>
</symbol>
<symbol id="icon-visa" viewBox="0 0 51 32">
<path fill="#000" style="fill: var(--color1, #000)" opacity="0.07" d="M46.667 0h-42.667c-2.267 0-4 1.733-4 4v24c0 2.267 1.867 4 4 4h42.667c2.267 0 4-1.733 4-4v-24c0-2.267-1.867-4-4-4z"></path>
<path fill="#fff" style="fill: var(--color2, #fff)" d="M46.667 1.333c1.467 0 2.667 1.2 2.667 2.667v24c0 1.467-1.2 2.667-2.667 2.667h-42.667c-1.467 0-2.667-1.2-2.667-2.667v-24c0-1.467 1.2-2.667 2.667-2.667h42.667z"></path>
<path fill="#142688" style="fill: var(--color6, #142688)" d="M37.733 13.467h-0.4c-0.533 1.333-0.933 2-1.333 4h2.533c-0.4-2-0.4-2.933-0.8-4zM41.6 21.333h-2.267c-0.133 0-0.133 0-0.267-0.133l-0.267-1.2-0.133-0.267h-3.2c-0.133 0-0.267 0-0.267 0.267l-0.4 1.2c0 0.133-0.133 0.133-0.133 0.133h-2.8l0.267-0.667 3.867-9.067c0-0.667 0.4-0.933 1.067-0.933h2c0.133 0 0.267 0 0.267 0.267l1.867 8.667c0.133 0.533 0.267 0.933 0.267 1.467 0.133 0.133 0.133 0.133 0.133 0.267zM23.733 20.933l0.533-2.4c0.133 0 0.267 0.133 0.267 0.133 0.933 0.4 1.867 0.667 2.8 0.533 0.267 0 0.667-0.133 0.933-0.267 0.667-0.267 0.667-0.933 0.133-1.467-0.267-0.267-0.667-0.4-1.067-0.667-0.533-0.267-1.067-0.533-1.467-0.933-1.6-1.333-1.067-3.2-0.133-4.133 0.8-0.533 1.2-1.067 2.267-1.067 1.6 0 3.333 0 4.133 0.267h0.133c-0.133 0.8-0.267 1.467-0.533 2.267-0.667-0.267-1.333-0.533-2-0.533-0.4 0-0.8 0-1.2 0.133-0.267 0-0.4 0.133-0.533 0.267-0.267 0.267-0.267 0.667 0 0.933l0.667 0.533c0.533 0.267 1.067 0.533 1.467 0.8 0.667 0.4 1.333 1.067 1.467 1.867 0.267 1.2-0.133 2.267-1.2 3.067-0.667 0.533-0.933 0.8-1.867 0.8-1.867 0-3.333 0.133-4.533-0.267-0.133 0.267-0.133 0.267-0.267 0.133zM19.067 21.333c0.133-0.933 0.133-0.933 0.267-1.333 0.667-2.933 1.333-6 1.867-8.933 0.133-0.267 0.133-0.4 0.4-0.4h2.4c-0.267 1.6-0.533 2.8-0.933 4.267-0.4 2-0.8 4-1.333 6 0 0.267-0.133 0.267-0.4 0.267l-2.267 0.133zM6.667 10.933c0-0.133 0.267-0.267 0.4-0.267h4.533c0.667 0 1.2 0.4 1.333 1.067l1.2 5.867c0 0.133 0 0.133 0.133 0.267 0-0.133 0.133-0.133 0.133-0.133l2.8-6.8c-0.133-0.133 0-0.267 0.133-0.267h2.8c0 0.133 0 0.133-0.133 0.267l-4.133 9.733c-0.133 0.267-0.133 0.4-0.267 0.533s-0.4 0-0.667 0h-2c-0.133 0-0.267 0-0.267-0.267l-2.133-8.267c-0.267-0.267-0.667-0.667-1.2-0.8-0.8-0.4-2.267-0.667-2.533-0.667l-0.133-0.267z"></path>
</symbol>
<symbol id="icon-master-card" viewBox="0 0 51 32">
<path fill="#000" style="fill: var(--color1, #000)" opacity="0.07" d="M46.667 0h-42.667c-2.267 0-4 1.733-4 4v24c0 2.267 1.867 4 4 4h42.667c2.267 0 4-1.733 4-4v-24c0-2.267-1.867-4-4-4z"></path>
<path fill="#fff" style="fill: var(--color2, #fff)" d="M46.667 1.333c1.467 0 2.667 1.2 2.667 2.667v24c0 1.467-1.2 2.667-2.667 2.667h-42.667c-1.467 0-2.667-1.2-2.667-2.667v-24c0-1.467 1.2-2.667 2.667-2.667h42.667z"></path>
<path fill="#eb001b" style="fill: var(--color7, #eb001b)" d="M20 25.333c5.155 0 9.333-4.179 9.333-9.333s-4.179-9.333-9.333-9.333c-5.155 0-9.333 4.179-9.333 9.333s4.179 9.333 9.333 9.333z"></path>
<path fill="#f79e1b" style="fill: var(--color8, #f79e1b)" d="M30.667 25.333c5.155 0 9.333-4.179 9.333-9.333s-4.179-9.333-9.333-9.333c-5.155 0-9.333 4.179-9.333 9.333s4.179 9.333 9.333 9.333z"></path>
<path fill="#ff5f00" style="fill: var(--color9, #ff5f00)" d="M29.333 16c0-3.2-1.6-6-4-7.6-2.4 1.733-4 4.533-4 7.6s1.6 6 4 7.6c2.4-1.6 4-4.4 4-7.6z"></path>
</symbol>
<symbol id="icon-jcb" viewBox="0 0 51 32">
<path fill="#000" style="fill: var(--color1, #000)" opacity="0.07" d="M46.667 0h-42.667c-2.267 0-4 1.733-4 4v24c0 2.267 1.867 4 4 4h42.667c2.267 0 4-1.733 4-4v-24c0-2.267-1.867-4-4-4z"></path>
<path fill="#fff" style="fill: var(--color2, #fff)" d="M46.667 1.333c1.467 0 2.667 1.2 2.667 2.667v24c0 1.467-1.2 2.667-2.667 2.667h-42.667c-1.467 0-2.667-1.2-2.667-2.667v-24c0-1.467 1.2-2.667 2.667-2.667h42.667z"></path>
<path fill="#006ebc" style="fill: var(--color10, #006ebc)" d="M15.333 6.667h4.667v15.333c0 0.884-0.351 1.732-0.976 2.357s-1.473 0.976-2.357 0.976h-4.667v-15.333c0-0.884 0.351-1.732 0.976-2.357s1.473-0.976 2.357-0.976z"></path>
<path fill="#f00036" style="fill: var(--color11, #f00036)" d="M24.667 6.667h4.667v15.333c0 0.884-0.351 1.732-0.976 2.357s-1.473 0.976-2.357 0.976h-4.667v-15.333c0-0.884 0.351-1.732 0.976-2.357s1.473-0.976 2.357-0.976z"></path>
<path fill="#2ab419" style="fill: var(--color12, #2ab419)" d="M34 6.667h4.667v15.333c0 0.884-0.351 1.732-0.976 2.357s-1.473 0.976-2.357 0.976h-4.667v-15.333c0-0.884 0.351-1.732 0.976-2.357s1.473-0.976 2.357-0.976z"></path>
<path fill="#fff" style="fill: var(--color2, #fff)" d="M14.34 19.333c-1.413 0-2.829-0.405-3.541-1.316l1.040-0.901c0.091 1.511 4.727 1.653 4.727-0.253v-4.196h2.403v4.196c0 0.971-0.765 1.763-2.097 2.176-0.621 0.192-1.82 0.295-2.531 0.295zM25.161 19.333c-0.899 0-1.851-0.143-2.62-0.488-1.264-0.567-1.749-1.608-1.733-2.932 0.016-1.352 0.581-2.376 1.957-2.887 1.759-0.653 4.457-0.348 5.235 0.36v1.296c-0.763-0.695-2.611-1.197-3.892-0.613-0.659 0.301-0.983 1.223-0.992 1.931-0.008 0.747 0.327 1.669 0.992 1.996 1.271 0.623 3.187 0.053 3.892-0.588v1.347c-0.477 0.34-1.671 0.579-2.839 0.579zM36.733 15.884c0.493-0.313 0.776-0.756 0.776-1.34s-0.155-0.916-0.464-1.252c-0.275-0.276-0.773-0.625-1.651-0.625h-4.728v6.667h4.728c0.928 0 1.463-0.307 1.753-0.553 0.377-0.333 0.568-0.707 0.568-1.28 0-0.575-0.207-1.211-0.983-1.616zM34.192 15.509h-1.904v-1.925h1.993c1.275 0 1.259 1.925-0.089 1.925zM34.576 18.385h-2.288v-2.017h2.288c1.315 0 1.444 2.017 0 2.017z"></path>
</symbol>
<symbol id="icon-amex" viewBox="0 0 51 32">
<path fill="#000" style="fill: var(--color1, #000)" opacity="0.07" d="M46.667 0h-42.667c-2.267 0-4 1.733-4 4v24c0 2.267 1.867 4 4 4h42.667c2.267 0 4-1.733 4-4v-24c0-2.267-1.867-4-4-4z"></path>
<path fill="#006fcf" style="fill: var(--color13, #006fcf)" d="M46.667 1.333c1.467 0 2.667 1.2 2.667 2.667v24c0 1.467-1.2 2.667-2.667 2.667h-42.667c-1.467 0-2.667-1.2-2.667-2.667v-24c0-1.467 1.2-2.667 2.667-2.667h42.667z"></path>
<path fill="#fff" style="fill: var(--color2, #fff)" d="M11.961 13.691l1.032 2.501h-2.056l1.024-2.501zM33.395 13.795h-3.969v1.103h3.905v1.652h-3.897v1.229h3.969v0.985l2.769-2.993-2.769-3.12-0.008 1.144zM14.644 10.675h5.327l1.183 2.58 1.096-2.588h13.827l1.437 1.587 1.487-1.587h6.351l-4.692 5.136 4.644 5.104h-6.445l-1.437-1.587-1.5 1.587h-22.547l-0.659-1.587h-1.507l-0.66 1.587h-5.215l4.381-10.24h4.573l0.356 0.008zM26.195 12.112h-2.985l-2 4.715-2.167-4.715h-2.963v6.413l-2.747-6.413h-2.657l-3.176 7.349h2.073l0.659-1.587h3.461l0.659 1.587h3.627v-5.247l2.335 5.255h1.587l2.32-5.239v5.24h1.944l0.032-7.36-0.001 0.001zM38.648 15.803l3.375-3.691h-2.429l-2.135 2.301-2.064-2.301h-7.859v7.357h7.747l2.152-2.317 2.064 2.317h2.5l-3.351-3.667z"></path>
</symbol>
<symbol id="icon-instagram" viewBox="0 0 32 32">
<path d="M16 3.094c4.206 0 4.7 0.019 6.363 0.094 1.538 0.069 2.369 0.325 2.925 0.544 0.737 0.287 1.262 0.625 1.812 1.175s0.894 1.075 1.175 1.813c0.213 0.556 0.475 1.387 0.544 2.925 0.075 1.662 0.094 2.156 0.094 6.363s-0.019 4.7-0.094 6.363c-0.069 1.538-0.325 2.369-0.544 2.925-0.288 0.738-0.625 1.263-1.175 1.813s-1.075 0.894-1.812 1.175c-0.556 0.212-1.388 0.475-2.925 0.544-1.662 0.075-2.156 0.094-6.363 0.094s-4.7-0.019-6.363-0.094c-1.537-0.069-2.369-0.325-2.925-0.544-0.737-0.288-1.263-0.625-1.813-1.175s-0.894-1.075-1.175-1.813c-0.212-0.556-0.475-1.387-0.544-2.925-0.075-1.662-0.094-2.156-0.094-6.363s0.019-4.7 0.094-6.363c0.069-1.537 0.325-2.369 0.544-2.925 0.287-0.737 0.625-1.263 1.175-1.813s1.075-0.894 1.813-1.175c0.556-0.212 1.388-0.475 2.925-0.544 1.662-0.081 2.156-0.094 6.363-0.094zM16 0.256c-4.275 0-4.813 0.019-6.494 0.094-1.675 0.075-2.819 0.344-3.819 0.731-1.037 0.4-1.913 0.944-2.788 1.819s-1.413 1.756-1.819 2.788c-0.387 1-0.656 2.144-0.731 3.825-0.075 1.675-0.094 2.213-0.094 6.488s0.019 4.813 0.094 6.494c0.075 1.675 0.344 2.819 0.731 3.825 0.4 1.038 0.944 1.913 1.819 2.788s1.756 1.412 2.788 1.819c1 0.387 2.144 0.656 3.825 0.731s2.213 0.094 6.494 0.094c4.281 0 4.812-0.019 6.494-0.094 1.675-0.075 2.819-0.344 3.825-0.731 1.037-0.4 1.912-0.944 2.787-1.819s1.413-1.756 1.819-2.788c0.388-1 0.656-2.144 0.731-3.825s0.094-2.212 0.094-6.494c0-4.281-0.019-4.813-0.094-6.494-0.075-1.675-0.344-2.819-0.731-3.825-0.4-1.038-0.944-1.913-1.819-2.788s-1.756-1.413-2.787-1.819c-1-0.387-2.144-0.656-3.825-0.731-1.687-0.069-2.225-0.088-6.5-0.088z"></path>
<path d="M16 7.912c-4.463 0-8.088 3.619-8.088 8.088s3.625 8.088 8.088 8.088c4.462 0 8.088-3.625 8.088-8.088s-3.625-8.088-8.088-8.088zM16 21.25c-2.9 0-5.25-2.35-5.25-5.25s2.35-5.25 5.25-5.25c2.9 0 5.25 2.35 5.25 5.25s-2.35 5.25-5.25 5.25z"></path>
<path d="M24.406 9.481c1.042 0 1.887-0.845 1.887-1.888s-0.845-1.888-1.887-1.888c-1.042 0-1.887 0.845-1.887 1.888s0.845 1.888 1.887 1.888z"></path>
</symbol>
<symbol id="icon-pinterest" viewBox="0 0 32 32">
<path d="M15.933 1.298c2.030 0 3.968 0.397 5.816 1.19s3.441 1.86 4.781 3.2c1.34 1.34 2.406 2.933 3.2 4.781s1.19 3.786 1.19 5.816c0 2.706-0.67 5.211-2.010 7.514s-3.161 4.124-5.464 5.464c-2.303 1.34-4.807 2.010-7.514 2.010-1.483 0-2.901-0.195-4.254-0.586 0.754-1.223 1.261-2.303 1.522-3.24l1.054-4.098c0.26 0.494 0.742 0.93 1.445 1.307s1.444 0.566 2.224 0.566c1.562 0 2.96-0.449 4.195-1.347s2.192-2.128 2.869-3.688c0.677-1.56 1.015-3.317 1.014-5.269 0-2.316-0.891-4.326-2.674-6.030s-4.053-2.557-6.811-2.557c-1.692 0-3.24 0.286-4.645 0.859s-2.537 1.321-3.395 2.245c-0.859 0.924-1.516 1.925-1.971 3.005s-0.683 2.166-0.683 3.259c0 1.353 0.254 2.537 0.762 3.552s1.269 1.731 2.283 2.147c0.182 0.078 0.339 0.084 0.469 0.019s0.221-0.189 0.274-0.371c0.182-0.651 0.286-1.054 0.312-1.21 0.105-0.286 0.039-0.559-0.195-0.819-0.676-0.754-1.014-1.73-1.014-2.928 0-1.978 0.683-3.675 2.050-5.093s3.155-2.126 5.366-2.126c1.952 0 3.474 0.533 4.566 1.6s1.639 2.459 1.64 4.176c0 1.431-0.195 2.752-0.586 3.962s-0.95 2.179-1.678 2.907c-0.729 0.729-1.561 1.093-2.498 1.093-0.781 0-1.418-0.286-1.912-0.859s-0.65-1.25-0.469-2.030c0.104-0.365 0.241-0.833 0.41-1.405s0.311-1.060 0.429-1.464c0.117-0.404 0.228-0.84 0.331-1.307s0.156-0.858 0.157-1.171c0-0.651-0.169-1.184-0.507-1.6s-0.833-0.624-1.483-0.624c-0.806 0-1.483 0.371-2.030 1.112s-0.82 1.672-0.819 2.79c0 0.416 0.033 0.819 0.098 1.21s0.137 0.677 0.214 0.859l0.117 0.274c-1.067 4.632-1.717 7.35-1.952 8.157-0.208 0.989-0.286 2.147-0.234 3.474-2.681-1.197-4.847-3.031-6.499-5.504s-2.478-5.218-2.478-8.235c0-4.138 1.463-7.67 4.39-10.597s6.459-4.39 10.597-4.39l0.002 0.002z"></path>
</symbol>
<symbol id="icon-logo" viewBox="0 0 82 32">
<path fill="#fff" d="M76.398 5.971c0-0.628 0.259-0.941 0.69-0.941s0.949 0.432 1.57 1.143l3.258 4.295v-5.559h-0.003v-0.003c-1.12-0.417-1.981-0.556-2.964-0.556-2.93 0-4.739 2.142-4.757 4.698-0.017 2.68 1.981 4.353 4.326 4.353 1.534 0 2.791-0.538 3.569-1.724l-0.017-0.017c-0.154 0.052-0.294 0.069-0.515 0.069-2.434 0.003-5.156-2.956-5.156-5.757zM68.549 13.205h5.64l-1.086-1.295v-7.729l-3.446 2.113v5.593l-1.109 1.318zM73.295 1.932c0-1.149-0.69-1.932-1.913-1.932s-1.912 0.783-1.912 1.932c0 1.166 0.69 1.949 1.912 1.949s1.913-0.783 1.913-1.949zM68.62 11.627l-0.017-0.017c-0.345 0.138-0.638 0.193-1.017 0.193-1.274 0-1.742-0.748-1.742-2.766v-4.056h2.431v-0.279h-2.431v-3.532l-4.774 3.794v0.017h1.328v4.943c0 2.263 0.809 3.48 2.862 3.48 1.585 0 2.722-0.749 3.36-1.776zM61.537 13.205l-1.126-1.344v-3.734c0-2.525-1.154-3.777-3.326-3.777-1.724 0-2.998 0.714-4.17 2.035l0.086 0.086c0.587-0.452 1.12-0.662 1.895-0.662 1.311 0 2.069 0.959 2.069 2.873-2.861 0.314-4.549 1.376-4.549 2.977 0 1.097 0.758 1.742 1.878 1.742 0.949 0 1.861-0.469 2.671-1.166l0.003 0.967 4.569 0.003zM56.963 11.993c-0.154 0.034-0.294 0.052-0.396 0.052-0.69 0-1.035-0.435-1.035-1.252 0-0.921 0.396-1.583 1.431-1.88v3.080zM51.525 11.794c0.006-0.13 0.003-0.746 0-1.373v-3.457c0-1.776-0.673-2.697-2.138-2.697-0.983 0-1.912 0.538-3.36 1.724-0.225-1.131-0.878-1.724-2.049-1.724-0.966 0-1.878 0.521-3.275 1.652v-1.742l-4.429 1.566 0.983 0.852v5.3l-1.097 1.307h5.64l-1.097-1.31v-5.769c0.318-0.151 0.666-0.228 1.018-0.227 0.741 0 0.949 0.452 0.949 1.811v5.493h4.572l-1.126-1.341v-4.9c0-0.297-0.017-0.556-0.051-0.8 0.345-0.173 0.707-0.262 1.069-0.262 0.741 0 0.949 0.452 0.949 1.811v5.239h0.003c0.048 3.866 1.371 5.115 2.286 5.824 1.605 0.987 3.377 1.14 4.888 0.274 0.633-0.348 1.117-0.944 1.111-0.95 0.248-0.343 0.408-0.772 0.402-1.31-0.011-1.079-0.807-1.837-1.927-1.834-1.134 0-1.927 0.78-1.918 1.886 0.006 1.013 0.513 1.67 1.351 1.886-0.67 0.276-1.394 0.276-1.781-0.012-0.932-0.777-0.978-3.475-0.969-5.76h0.003v-1.154h-0.006zM35.744 10.297c0-0.642-0.165-1.166-0.499-1.621-0.299-0.374-0.71-0.708-1.237-0.996l-1.294-0.697c-1.018-0.538-1.291-0.976-1.291-1.583 0-0.487 0.262-0.962 1.009-0.829 0.388 0.069 0.695 0.265 1.317 0.869l1.667 1.724v-3.020h-2.919l0.006 0.006c-2.186 0.058-3.529 1.189-3.529 2.902 0 0.642 0.165 1.166 0.499 1.621 0.299 0.374 0.71 0.708 1.24 0.996l1.291 0.697c1.018 0.538 1.294 0.976 1.294 1.583 0 0.486-0.262 0.961-1.009 0.829-0.388-0.069-0.695-0.265-1.317-0.869l-1.667-1.724v3.020h2.919l-0.006-0.006c2.183-0.058 3.526-1.189 3.526-2.902zM29.562 21.19v9.33l-1.094 1.304h5.64l-1.1-1.313v-11.742l-4.429 1.566 0.983 0.855zM22.918 13.205h5.64l-1.089-1.295v-7.729l-3.446 2.113v5.593l-1.106 1.318zM27.661 1.932c0-1.149-0.69-1.932-1.913-1.932s-1.912 0.783-1.912 1.932c0 1.166 0.69 1.949 1.912 1.949s1.913-0.783 1.913-1.949zM20.162 7.548l2.508 1.583v-4.617l-2.508 1.583v-1.814l-4.429 1.497 0.983 0.852v5.262l-1.1 1.31h5.64l-1.094-1.307v-4.35zM15.451 4.439c0-2.159-1.947-3.742-6.188-3.742l-7.425 0.006c-1.174 0.032-1.838 0.8-1.838 1.926 0 1.166 0.69 1.949 1.912 1.949s1.912-0.783 1.912-1.949c0-0.651-0.228-1.175-0.641-1.517l0.034 0.009c1.981-0.046 1.981 1.054 1.981 1.054v9.926l-0.923 1.103h5.64l-0.926-1.103v-3.555c4.136-0.032 6.461-1.529 6.461-4.105zM11.489 4.456c0 2.366-1 3.794-2.5 3.811v-7.292h0.191c1.377 0 2.309 1.2 2.309 3.48zM12.9 21.251c0 1.166 0.69 1.949 1.912 1.949s1.912-0.783 1.912-1.949c0-0.651-0.228-1.174-0.641-1.517l0.034 0.009c1.981-0.046 1.981 1.054 1.981 1.054v9.926l-0.923 1.103h5.64l-0.926-1.103v-3.555c4.136-0.035 6.461-1.531 6.461-4.108 0-2.159-1.947-3.742-6.188-3.742l-7.425 0.006c-1.174 0.035-1.838 0.803-1.838 1.929zM21.889 19.596h0.191c1.379 0 2.309 1.2 2.309 3.48 0 2.366-1 3.794-2.5 3.811v-7.292zM34.584 30.258c0 1.097 0.758 1.742 1.878 1.742 0.946 0 1.861-0.469 2.671-1.166l0.003 0.967h4.572l-1.126-1.344v-3.731c0-2.525-1.154-3.777-3.326-3.777-1.724 0-2.998 0.714-4.17 2.035l0.086 0.086c0.587-0.452 1.12-0.662 1.895-0.662 1.308 0 2.069 0.959 2.069 2.873-2.862 0.314-4.552 1.376-4.552 2.977zM37.702 29.389c0-0.921 0.396-1.583 1.431-1.88v3.080c-0.154 0.035-0.294 0.052-0.396 0.052-0.69 0-1.035-0.435-1.035-1.252zM45.243 30.52l-1.097 1.307h5.64l-1.1-1.31v-3.092h0.003v-0.538h-0.003v-2.127c0.345-0.158 0.69-0.262 1.035-0.262 0.707 0 1.035 0.452 1.035 1.811v5.519h4.572l-1.126-1.341v-4.925c0-1.776-0.758-2.697-2.223-2.697-1.171 0-2.172 0.679-3.292 1.652v-1.742l-4.429 1.566 0.983 0.852v5.329h0.003zM54.706 23.577h1.328v4.943c0 2.263 0.809 3.48 2.862 3.48 1.585 0 2.722-0.748 3.36-1.776l-0.017-0.017c-0.345 0.138-0.638 0.193-1.017 0.193-1.274 0-1.741-0.749-1.741-2.766v-4.056h2.428v-0.279h-2.428v-3.532l-4.774 3.794v0.017zM62.415 25.675c0 0.645 0.165 1.166 0.499 1.624 0.299 0.374 0.71 0.708 1.237 0.996l1.294 0.697c1.018 0.538 1.291 0.976 1.291 1.583 0 0.487-0.262 0.962-1.009 0.829-0.388-0.069-0.695-0.265-1.317-0.869l-1.667-1.724v3.020h2.919l-0.006-0.006c2.186-0.058 3.528-1.189 3.528-2.902 0-0.642-0.165-1.166-0.499-1.624-0.299-0.374-0.71-0.708-1.24-0.996l-1.294-0.697c-1.017-0.541-1.291-0.976-1.291-1.583 0-0.486 0.262-0.961 1.009-0.829 0.388 0.069 0.695 0.265 1.317 0.869l1.667 1.724v-3.020h-2.919l0.006 0.006c-2.183 0.058-3.526 1.189-3.526 2.902z"></path>
</symbol>
<symbol id="icon-wave" viewBox="0 0 8 32">
<path fill="#fff"  d="M4.629 32h-1.551l0.765-0.238c1.924-0.597 2.959-1.351 2.914-2.123-0.045-0.777-1.183-1.527-3.203-2.11-2.292-0.662-3.554-1.516-3.554-2.405s1.262-1.744 3.554-2.405c2.071-0.598 3.211-1.366 3.211-2.163s-1.14-1.565-3.211-2.162c-2.292-0.662-3.554-1.516-3.554-2.406s1.263-1.743 3.554-2.404c2.071-0.598 3.211-1.366 3.211-2.163s-1.14-1.565-3.211-2.162c-2.292-0.662-3.554-1.516-3.554-2.405s1.262-1.744 3.554-2.405c2.010-0.58 3.147-1.325 3.202-2.098 0.055-0.766-0.955-1.517-2.843-2.113l-0.75-0.237h1.539l0.131 0.043c1.963 0.637 3.043 1.433 3.043 2.243 0 0.889-1.262 1.743-3.554 2.405-2.071 0.598-3.211 1.366-3.211 2.162s1.14 1.565 3.211 2.162c2.292 0.662 3.554 1.516 3.554 2.405s-1.263 1.744-3.554 2.405c-2.071 0.598-3.211 1.366-3.211 2.162s1.14 1.565 3.211 2.163c2.292 0.661 3.555 1.516 3.554 2.405s-1.262 1.744-3.554 2.405c-2.071 0.598-3.211 1.366-3.211 2.163s1.14 1.565 3.211 2.163c2.218 0.64 3.476 1.466 3.545 2.326 0.068 0.852-1.036 1.685-3.108 2.346l-0.13 0.042z"></path>
</symbol>
<symbol id="icon-mountains" viewBox="0 0 273 32">
<path fill="#c2d8cc" style="fill: var(--color2, #c2d8cc)" d="M-2.651 26.864c31.233-29.654 32.181 8.505 68.66 5.685 36.481-2.821 37.428-36.206 72.961-22.57 0.404 0.155 0.812 0.304 1.222 0.445 24.753 8.503 39.477-17.079 66.792-8.72 27.759 8.495 24.119 31.271 65.678 32.020v0.549h-275.313l-0-7.408z"></path>
</symbol>
</defs>
</svg>
